<mxfile host="app.diagrams.net" modified="2021-03-18T14:54:57.145Z" agent="5.0 (Macintosh; Intel Mac OS X 10_14_3) AppleWebKit/537.36 (KHTML, like Gecko) Chrome/89.0.4389.82 Safari/537.36" etag="T-wQvLh_6zDF1nNTvUgX" version="14.4.8" type="github">
  <diagram id="3228e29e-7158-1315-38df-8450db1d8a1d" name="Page-1">
    <mxGraphModel dx="1113" dy="582" grid="1" gridSize="10" guides="1" tooltips="1" connect="1" arrows="1" fold="1" page="1" pageScale="1" pageWidth="1300" pageHeight="320" background="#ffffff" math="0" shadow="0">
      <root>
        <mxCell id="0" />
        <mxCell id="1" parent="0" />
        <mxCell id="Q25eg6aNbo5KrL4aYmKd-64" value="" style="rounded=1;whiteSpace=wrap;html=1;strokeColor=#666666;strokeWidth=5;fillColor=#f5f5f5;fontColor=#333333;" parent="1" vertex="1">
          <mxGeometry x="690" y="382" width="294.39" height="138" as="geometry" />
        </mxCell>
        <mxCell id="Q25eg6aNbo5KrL4aYmKd-55" value="" style="rounded=1;whiteSpace=wrap;html=1;strokeColor=#666666;strokeWidth=5;fillColor=#f5f5f5;fontColor=#333333;" parent="1" vertex="1">
          <mxGeometry x="690" y="690" width="290" height="150" as="geometry" />
        </mxCell>
        <mxCell id="Q25eg6aNbo5KrL4aYmKd-56" value="&lt;font style=&quot;font-size: 30px&quot;&gt;UDP Recv Buffer&lt;/font&gt;" style="text;html=1;strokeColor=none;fillColor=none;align=center;verticalAlign=middle;whiteSpace=wrap;rounded=0;" parent="1" vertex="1">
          <mxGeometry x="711.5" y="655" width="230" height="20" as="geometry" />
        </mxCell>
        <mxCell id="Q25eg6aNbo5KrL4aYmKd-53" value="" style="rounded=1;whiteSpace=wrap;html=1;strokeColor=#666666;strokeWidth=5;fillColor=#f5f5f5;fontColor=#333333;" parent="1" vertex="1">
          <mxGeometry x="690" y="95" width="290" height="125" as="geometry" />
        </mxCell>
        <mxCell id="ORzlP0sGd4nqnSAyvKW6-2" value="&lt;font style=&quot;font-size: 20px&quot;&gt;msg2&lt;/font&gt;" style="rounded=1;whiteSpace=wrap;html=1;fillColor=#4A919B;strokeColor=#4A919B;" parent="1" vertex="1">
          <mxGeometry x="160" y="130" width="110" height="60" as="geometry" />
        </mxCell>
        <mxCell id="ORzlP0sGd4nqnSAyvKW6-3" value="&lt;font style=&quot;font-size: 30px&quot;&gt;msg1&lt;/font&gt;" style="rounded=1;whiteSpace=wrap;html=1;fillColor=#FDD276;strokeColor=#FDD276;" parent="1" vertex="1">
          <mxGeometry x="410" y="130" width="120" height="60" as="geometry" />
        </mxCell>
        <mxCell id="ORzlP0sGd4nqnSAyvKW6-6" value="" style="endArrow=none;html=1;strokeWidth=5;" parent="1" edge="1">
          <mxGeometry width="50" height="50" relative="1" as="geometry">
            <mxPoint x="140" y="220" as="sourcePoint" />
            <mxPoint x="550" y="220" as="targetPoint" />
          </mxGeometry>
        </mxCell>
        <mxCell id="ORzlP0sGd4nqnSAyvKW6-7" value="" style="endArrow=none;html=1;strokeWidth=5;" parent="1" edge="1">
          <mxGeometry width="50" height="50" relative="1" as="geometry">
            <mxPoint x="140" y="100" as="sourcePoint" />
            <mxPoint x="550" y="100" as="targetPoint" />
          </mxGeometry>
        </mxCell>
        <mxCell id="ORzlP0sGd4nqnSAyvKW6-8" value="" style="fontColor=#0066CC;verticalAlign=top;verticalLabelPosition=bottom;labelPosition=center;align=center;html=1;outlineConnect=0;strokeColor=#6881B3;gradientColor=none;gradientDirection=north;strokeWidth=2;shape=mxgraph.networks.mobile;fillColor=#F19C99;" parent="1" vertex="1">
          <mxGeometry x="60" y="110" width="50" height="100" as="geometry" />
        </mxCell>
        <mxCell id="ORzlP0sGd4nqnSAyvKW6-9" value="&lt;font style=&quot;font-size: 50px&quot;&gt;A&lt;/font&gt;" style="text;html=1;strokeColor=none;fillColor=none;align=center;verticalAlign=middle;whiteSpace=wrap;rounded=0;" parent="1" vertex="1">
          <mxGeometry x="65" y="150" width="40" height="20" as="geometry" />
        </mxCell>
        <mxCell id="ORzlP0sGd4nqnSAyvKW6-10" value="" style="fontColor=#0066CC;verticalAlign=top;verticalLabelPosition=bottom;labelPosition=center;align=center;html=1;outlineConnect=0;strokeColor=#6881B3;gradientColor=none;gradientDirection=north;strokeWidth=2;shape=mxgraph.networks.mobile;fillColor=#00994D;" parent="1" vertex="1">
          <mxGeometry x="600" y="106" width="50" height="100" as="geometry" />
        </mxCell>
        <mxCell id="ORzlP0sGd4nqnSAyvKW6-11" value="&lt;font style=&quot;font-size: 50px&quot;&gt;B&lt;/font&gt;" style="text;html=1;strokeColor=none;fillColor=none;align=center;verticalAlign=middle;whiteSpace=wrap;rounded=0;" parent="1" vertex="1">
          <mxGeometry x="605" y="146" width="40" height="20" as="geometry" />
        </mxCell>
        <mxCell id="ORzlP0sGd4nqnSAyvKW6-12" value="" style="shape=flexArrow;endArrow=classic;html=1;strokeWidth=5;strokeColor=#5A6EAB;fillColor=#5A6EAB;" parent="1" edge="1">
          <mxGeometry width="50" height="50" relative="1" as="geometry">
            <mxPoint x="315" y="60" as="sourcePoint" />
            <mxPoint x="365" y="60" as="targetPoint" />
          </mxGeometry>
        </mxCell>
        <mxCell id="Q25eg6aNbo5KrL4aYmKd-1" value="&lt;font style=&quot;font-size: 20px&quot;&gt;msg2&lt;/font&gt;" style="rounded=1;whiteSpace=wrap;html=1;fillColor=#4A919B;strokeColor=#4A919B;" parent="1" vertex="1">
          <mxGeometry x="410" y="400" width="110" height="60" as="geometry" />
        </mxCell>
        <mxCell id="Q25eg6aNbo5KrL4aYmKd-3" value="" style="endArrow=none;html=1;strokeWidth=5;" parent="1" edge="1">
          <mxGeometry width="50" height="50" relative="1" as="geometry">
            <mxPoint x="135" y="490" as="sourcePoint" />
            <mxPoint x="545" y="490" as="targetPoint" />
          </mxGeometry>
        </mxCell>
        <mxCell id="Q25eg6aNbo5KrL4aYmKd-4" value="" style="endArrow=none;html=1;strokeWidth=5;" parent="1" edge="1">
          <mxGeometry width="50" height="50" relative="1" as="geometry">
            <mxPoint x="135" y="370" as="sourcePoint" />
            <mxPoint x="545" y="370" as="targetPoint" />
          </mxGeometry>
        </mxCell>
        <mxCell id="Q25eg6aNbo5KrL4aYmKd-5" value="" style="fontColor=#0066CC;verticalAlign=top;verticalLabelPosition=bottom;labelPosition=center;align=center;html=1;outlineConnect=0;strokeColor=#6881B3;gradientColor=none;gradientDirection=north;strokeWidth=2;shape=mxgraph.networks.mobile;fillColor=#F19C99;" parent="1" vertex="1">
          <mxGeometry x="55" y="380" width="50" height="100" as="geometry" />
        </mxCell>
        <mxCell id="Q25eg6aNbo5KrL4aYmKd-6" value="&lt;font style=&quot;font-size: 50px&quot;&gt;A&lt;/font&gt;" style="text;html=1;strokeColor=none;fillColor=none;align=center;verticalAlign=middle;whiteSpace=wrap;rounded=0;" parent="1" vertex="1">
          <mxGeometry x="60" y="420" width="40" height="20" as="geometry" />
        </mxCell>
        <mxCell id="Q25eg6aNbo5KrL4aYmKd-7" value="" style="fontColor=#0066CC;verticalAlign=top;verticalLabelPosition=bottom;labelPosition=center;align=center;html=1;outlineConnect=0;strokeColor=#6881B3;gradientColor=none;gradientDirection=north;strokeWidth=2;shape=mxgraph.networks.mobile;fillColor=#00994D;" parent="1" vertex="1">
          <mxGeometry x="595" y="376" width="50" height="100" as="geometry" />
        </mxCell>
        <mxCell id="Q25eg6aNbo5KrL4aYmKd-8" value="&lt;font style=&quot;font-size: 50px&quot;&gt;B&lt;/font&gt;" style="text;html=1;strokeColor=none;fillColor=none;align=center;verticalAlign=middle;whiteSpace=wrap;rounded=0;" parent="1" vertex="1">
          <mxGeometry x="600" y="416" width="40" height="20" as="geometry" />
        </mxCell>
        <mxCell id="Q25eg6aNbo5KrL4aYmKd-9" value="" style="shape=flexArrow;endArrow=classic;html=1;strokeWidth=5;strokeColor=#5A6EAB;fillColor=#5A6EAB;" parent="1" edge="1">
          <mxGeometry width="50" height="50" relative="1" as="geometry">
            <mxPoint x="310" y="330" as="sourcePoint" />
            <mxPoint x="360" y="330" as="targetPoint" />
          </mxGeometry>
        </mxCell>
        <mxCell id="Q25eg6aNbo5KrL4aYmKd-11" value="&lt;font style=&quot;font-size: 20px&quot;&gt;msg3&lt;/font&gt;" style="rounded=1;whiteSpace=wrap;html=1;strokeColor=#4A919B;fillColor=#F19C99;" parent="1" vertex="1">
          <mxGeometry x="180" y="400" width="80" height="60" as="geometry" />
        </mxCell>
        <mxCell id="Q25eg6aNbo5KrL4aYmKd-15" value="&lt;font style=&quot;font-size: 20px&quot;&gt;msg1&lt;/font&gt;" style="rounded=1;whiteSpace=wrap;html=1;fillColor=#f5f5f5;strokeColor=#666666;sketch=0;fontColor=#333333;" parent="1" vertex="1">
          <mxGeometry x="870" y="410" width="78" height="50" as="geometry" />
        </mxCell>
        <mxCell id="Q25eg6aNbo5KrL4aYmKd-34" value="" style="endArrow=none;html=1;strokeWidth=5;" parent="1" edge="1">
          <mxGeometry width="50" height="50" relative="1" as="geometry">
            <mxPoint x="130" y="810" as="sourcePoint" />
            <mxPoint x="540" y="810" as="targetPoint" />
          </mxGeometry>
        </mxCell>
        <mxCell id="Q25eg6aNbo5KrL4aYmKd-35" value="" style="endArrow=none;html=1;strokeWidth=5;" parent="1" edge="1">
          <mxGeometry width="50" height="50" relative="1" as="geometry">
            <mxPoint x="130" y="690" as="sourcePoint" />
            <mxPoint x="540" y="690" as="targetPoint" />
          </mxGeometry>
        </mxCell>
        <mxCell id="Q25eg6aNbo5KrL4aYmKd-36" value="" style="fontColor=#0066CC;verticalAlign=top;verticalLabelPosition=bottom;labelPosition=center;align=center;html=1;outlineConnect=0;strokeColor=#6881B3;gradientColor=none;gradientDirection=north;strokeWidth=2;shape=mxgraph.networks.mobile;fillColor=#F19C99;" parent="1" vertex="1">
          <mxGeometry x="50" y="700" width="50" height="100" as="geometry" />
        </mxCell>
        <mxCell id="Q25eg6aNbo5KrL4aYmKd-37" value="&lt;font style=&quot;font-size: 50px&quot;&gt;A&lt;/font&gt;" style="text;html=1;strokeColor=none;fillColor=none;align=center;verticalAlign=middle;whiteSpace=wrap;rounded=0;" parent="1" vertex="1">
          <mxGeometry x="55" y="740" width="40" height="20" as="geometry" />
        </mxCell>
        <mxCell id="Q25eg6aNbo5KrL4aYmKd-38" value="" style="fontColor=#0066CC;verticalAlign=top;verticalLabelPosition=bottom;labelPosition=center;align=center;html=1;outlineConnect=0;strokeColor=#6881B3;gradientColor=none;gradientDirection=north;strokeWidth=2;shape=mxgraph.networks.mobile;fillColor=#00994D;" parent="1" vertex="1">
          <mxGeometry x="590" y="696" width="50" height="100" as="geometry" />
        </mxCell>
        <mxCell id="Q25eg6aNbo5KrL4aYmKd-39" value="&lt;font style=&quot;font-size: 50px&quot;&gt;B&lt;/font&gt;" style="text;html=1;strokeColor=none;fillColor=none;align=center;verticalAlign=middle;whiteSpace=wrap;rounded=0;" parent="1" vertex="1">
          <mxGeometry x="595" y="736" width="40" height="20" as="geometry" />
        </mxCell>
        <mxCell id="Q25eg6aNbo5KrL4aYmKd-40" value="" style="shape=flexArrow;endArrow=classic;html=1;strokeWidth=5;strokeColor=#5A6EAB;fillColor=#5A6EAB;" parent="1" edge="1">
          <mxGeometry width="50" height="50" relative="1" as="geometry">
            <mxPoint x="305" y="650" as="sourcePoint" />
            <mxPoint x="355" y="650" as="targetPoint" />
          </mxGeometry>
        </mxCell>
        <mxCell id="Q25eg6aNbo5KrL4aYmKd-42" value="&lt;font style=&quot;font-size: 20px&quot;&gt;msg3&lt;/font&gt;" style="rounded=1;whiteSpace=wrap;html=1;strokeColor=#4A919B;fillColor=#F19C99;" parent="1" vertex="1">
          <mxGeometry x="420" y="720" width="80" height="60" as="geometry" />
        </mxCell>
        <mxCell id="Q25eg6aNbo5KrL4aYmKd-45" value="&lt;font style=&quot;font-size: 20px&quot;&gt;msg1&lt;/font&gt;" style="rounded=1;whiteSpace=wrap;html=1;fillColor=#f5f5f5;strokeColor=#666666;fontColor=#333333;" parent="1" vertex="1">
          <mxGeometry x="880" y="740" width="73" height="40" as="geometry" />
        </mxCell>
        <mxCell id="Q25eg6aNbo5KrL4aYmKd-46" value="&lt;font style=&quot;font-size: 20px&quot;&gt;msg2&lt;/font&gt;" style="rounded=1;whiteSpace=wrap;html=1;fillColor=#4A919B;strokeColor=#4A919B;" parent="1" vertex="1">
          <mxGeometry x="800" y="740" width="80" height="40" as="geometry" />
        </mxCell>
        <mxCell id="Q25eg6aNbo5KrL4aYmKd-54" value="&lt;font style=&quot;font-size: 30px&quot;&gt;UDP Recv Buffer&lt;/font&gt;" style="text;html=1;strokeColor=none;fillColor=none;align=center;verticalAlign=middle;whiteSpace=wrap;rounded=0;" parent="1" vertex="1">
          <mxGeometry x="711.5" y="60" width="230" height="20" as="geometry" />
        </mxCell>
        <mxCell id="Q25eg6aNbo5KrL4aYmKd-57" value="" style="rounded=1;whiteSpace=wrap;html=1;strokeColor=#666666;strokeWidth=5;fillColor=#f5f5f5;fontColor=#333333;" parent="1" vertex="1">
          <mxGeometry x="690" y="1005" width="290" height="145" as="geometry" />
        </mxCell>
        <mxCell id="Q25eg6aNbo5KrL4aYmKd-58" value="&lt;font style=&quot;font-size: 30px&quot;&gt;UDP Recv Buffer&lt;/font&gt;" style="text;html=1;strokeColor=none;fillColor=none;align=center;verticalAlign=middle;whiteSpace=wrap;rounded=0;" parent="1" vertex="1">
          <mxGeometry x="718" y="970" width="230" height="20" as="geometry" />
        </mxCell>
        <mxCell id="Q25eg6aNbo5KrL4aYmKd-65" value="&lt;font style=&quot;font-size: 30px&quot;&gt;UDP Recv Buffer&lt;/font&gt;" style="text;html=1;strokeColor=none;fillColor=none;align=center;verticalAlign=middle;whiteSpace=wrap;rounded=0;" parent="1" vertex="1">
          <mxGeometry x="711.5" y="330" width="230" height="20" as="geometry" />
        </mxCell>
        <mxCell id="Q25eg6aNbo5KrL4aYmKd-71" value="" style="shape=flexArrow;endArrow=classic;html=1;strokeWidth=5;strokeColor=#5A6EAB;fillColor=#5A6EAB;" parent="1" edge="1">
          <mxGeometry width="50" height="50" relative="1" as="geometry">
            <mxPoint x="841" y="254.85000000000002" as="sourcePoint" />
            <mxPoint x="841" y="305.14000000000004" as="targetPoint" />
          </mxGeometry>
        </mxCell>
        <mxCell id="Q25eg6aNbo5KrL4aYmKd-73" value="" style="shape=flexArrow;endArrow=classic;html=1;strokeWidth=5;strokeColor=#5A6EAB;fillColor=#5A6EAB;" parent="1" edge="1">
          <mxGeometry width="50" height="50" relative="1" as="geometry">
            <mxPoint x="841" y="569" as="sourcePoint" />
            <mxPoint x="841" y="619.2900000000001" as="targetPoint" />
          </mxGeometry>
        </mxCell>
        <mxCell id="Q25eg6aNbo5KrL4aYmKd-74" value="" style="shape=flexArrow;endArrow=classic;html=1;strokeWidth=5;strokeColor=#5A6EAB;fillColor=#5A6EAB;" parent="1" edge="1">
          <mxGeometry width="50" height="50" relative="1" as="geometry">
            <mxPoint x="836.7800000000001" y="890" as="sourcePoint" />
            <mxPoint x="836.7800000000001" y="940.29" as="targetPoint" />
          </mxGeometry>
        </mxCell>
        <mxCell id="CKk09p9d2FvDrtDe5IxK-9" value="&lt;font style=&quot;font-size: 20px&quot;&gt;msg1&lt;/font&gt;" style="rounded=1;whiteSpace=wrap;html=1;fillColor=#FDD276;strokeColor=#FDD276;" parent="1" vertex="1">
          <mxGeometry x="1110" y="430" width="60" height="30" as="geometry" />
        </mxCell>
        <mxCell id="CKk09p9d2FvDrtDe5IxK-12" value="&lt;font style=&quot;font-size: 20px&quot;&gt;1. 应用层如果立刻取走msg1，可以不需要知道UDP数据长度&lt;/font&gt;" style="text;html=1;strokeColor=none;fillColor=none;align=center;verticalAlign=middle;whiteSpace=wrap;rounded=0;" parent="1" vertex="1">
          <mxGeometry x="1077.5" y="470" width="162.5" height="100" as="geometry" />
        </mxCell>
        <mxCell id="CKk09p9d2FvDrtDe5IxK-14" value="" style="shape=flexArrow;endArrow=classic;html=1;strokeWidth=5;strokeColor=#5A6EAB;fillColor=#5A6EAB;" parent="1" edge="1">
          <mxGeometry width="50" height="50" relative="1" as="geometry">
            <mxPoint x="1020" y="449" as="sourcePoint" />
            <mxPoint x="1070" y="449" as="targetPoint" />
          </mxGeometry>
        </mxCell>
        <mxCell id="CKk09p9d2FvDrtDe5IxK-18" value="&lt;font style=&quot;font-size: 20px&quot;&gt;2. 应用层在忙，没有立刻取走msg2&lt;/font&gt;" style="text;html=1;strokeColor=none;fillColor=none;align=center;verticalAlign=middle;whiteSpace=wrap;rounded=0;" parent="1" vertex="1">
          <mxGeometry x="1090" y="730" width="125" height="100" as="geometry" />
        </mxCell>
        <mxCell id="CKk09p9d2FvDrtDe5IxK-19" value="" style="shape=flexArrow;endArrow=classic;html=1;strokeWidth=5;strokeColor=#5A6EAB;fillColor=#5A6EAB;" parent="1" edge="1">
          <mxGeometry width="50" height="50" relative="1" as="geometry">
            <mxPoint x="1020" y="759" as="sourcePoint" />
            <mxPoint x="1070" y="759" as="targetPoint" />
          </mxGeometry>
        </mxCell>
        <mxCell id="CKk09p9d2FvDrtDe5IxK-21" value="&lt;font style=&quot;font-size: 20px&quot;&gt;3. 应用层忙完，来取数据包，一次性拿到了msg2和msg3，如果读取msg2的UDP头没有长度信息，怎么区分msg2和msg3的边界在哪？&lt;/font&gt;" style="text;html=1;strokeColor=none;fillColor=none;align=center;verticalAlign=middle;whiteSpace=wrap;rounded=0;" parent="1" vertex="1">
          <mxGeometry x="1047.5" y="1130" width="222.5" height="105" as="geometry" />
        </mxCell>
        <mxCell id="CKk09p9d2FvDrtDe5IxK-22" value="" style="shape=flexArrow;endArrow=classic;html=1;strokeWidth=5;strokeColor=#5A6EAB;fillColor=#5A6EAB;fontSize=20;" parent="1" edge="1">
          <mxGeometry width="50" height="50" relative="1" as="geometry">
            <mxPoint x="1020" y="1079" as="sourcePoint" />
            <mxPoint x="1070" y="1079" as="targetPoint" />
          </mxGeometry>
        </mxCell>
        <mxCell id="CKk09p9d2FvDrtDe5IxK-27" value="&lt;font style=&quot;font-size: 20px&quot;&gt;msg2&lt;/font&gt;" style="rounded=1;whiteSpace=wrap;html=1;fillColor=#4A919B;strokeColor=#4A919B;" parent="1" vertex="1">
          <mxGeometry x="1168.5" y="1060" width="80" height="40" as="geometry" />
        </mxCell>
        <mxCell id="CKk09p9d2FvDrtDe5IxK-28" value="&lt;font style=&quot;font-size: 20px;&quot;&gt;msg3&lt;/font&gt;" style="rounded=1;whiteSpace=wrap;html=1;strokeColor=#4A919B;fillColor=#F19C99;fontSize=20;" parent="1" vertex="1">
          <mxGeometry x="1090" y="1060" width="80" height="40" as="geometry" />
        </mxCell>
        <mxCell id="CKk09p9d2FvDrtDe5IxK-29" value="&lt;font style=&quot;font-size: 20px&quot;&gt;msg1&lt;/font&gt;" style="rounded=1;whiteSpace=wrap;html=1;fillColor=#f5f5f5;strokeColor=#666666;fontColor=#333333;" parent="1" vertex="1">
          <mxGeometry x="882.75" y="1060" width="73" height="40" as="geometry" />
        </mxCell>
        <mxCell id="CKk09p9d2FvDrtDe5IxK-30" value="&lt;font style=&quot;font-size: 20px&quot;&gt;msg2&lt;/font&gt;" style="rounded=1;whiteSpace=wrap;html=1;strokeColor=#4A919B;fillColor=#F5F5F5;" parent="1" vertex="1">
          <mxGeometry x="802.75" y="1060" width="80" height="40" as="geometry" />
        </mxCell>
        <mxCell id="CKk09p9d2FvDrtDe5IxK-31" value="&lt;font style=&quot;font-size: 20px;&quot;&gt;msg3&lt;/font&gt;" style="rounded=1;whiteSpace=wrap;html=1;strokeColor=#4A919B;fontSize=20;fillColor=#F5F5F5;" parent="1" vertex="1">
          <mxGeometry x="724.25" y="1060" width="80" height="40" as="geometry" />
        </mxCell>
        <mxCell id="iAt17fcDZL2dFfKAkzgQ-1" value="&lt;font style=&quot;font-size: 20px&quot;&gt;IP头&lt;/font&gt;" style="rounded=1;whiteSpace=wrap;html=1;strokeColor=#4A919B;fillColor=#CD5E3C;" vertex="1" parent="1">
          <mxGeometry x="130" y="130" width="30" height="60" as="geometry" />
        </mxCell>
        <mxCell id="iAt17fcDZL2dFfKAkzgQ-2" value="&lt;font style=&quot;font-size: 20px&quot;&gt;IP头&lt;/font&gt;" style="rounded=1;whiteSpace=wrap;html=1;strokeColor=#4A919B;fillColor=#CD5E3C;" vertex="1" parent="1">
          <mxGeometry x="380" y="130" width="30" height="60" as="geometry" />
        </mxCell>
        <mxCell id="iAt17fcDZL2dFfKAkzgQ-3" value="&lt;font style=&quot;font-size: 20px&quot;&gt;IP头&lt;/font&gt;" style="rounded=1;whiteSpace=wrap;html=1;strokeColor=#4A919B;fillColor=#CD5E3C;" vertex="1" parent="1">
          <mxGeometry x="380" y="400" width="30" height="60" as="geometry" />
        </mxCell>
        <mxCell id="iAt17fcDZL2dFfKAkzgQ-4" value="&lt;font style=&quot;font-size: 20px&quot;&gt;IP头&lt;/font&gt;" style="rounded=1;whiteSpace=wrap;html=1;strokeColor=#4A919B;fillColor=#CD5E3C;" vertex="1" parent="1">
          <mxGeometry x="150" y="400" width="30" height="60" as="geometry" />
        </mxCell>
        <mxCell id="iAt17fcDZL2dFfKAkzgQ-5" value="&lt;font style=&quot;font-size: 20px&quot;&gt;IP头&lt;/font&gt;" style="rounded=1;whiteSpace=wrap;html=1;strokeColor=#4A919B;fillColor=#CD5E3C;" vertex="1" parent="1">
          <mxGeometry x="390" y="720" width="30" height="60" as="geometry" />
        </mxCell>
        <mxCell id="iAt17fcDZL2dFfKAkzgQ-7" value="" style="endArrow=none;dashed=1;html=1;dashPattern=1 3;strokeWidth=10;strokeColor=#B5739D;" edge="1" parent="1">
          <mxGeometry width="50" height="50" relative="1" as="geometry">
            <mxPoint x="570" y="1210" as="sourcePoint" />
            <mxPoint x="570" y="10" as="targetPoint" />
          </mxGeometry>
        </mxCell>
        <mxCell id="iAt17fcDZL2dFfKAkzgQ-8" value="&lt;font style=&quot;font-size: 40px&quot;&gt;IP层&lt;/font&gt;" style="text;html=1;strokeColor=none;fillColor=none;align=center;verticalAlign=middle;whiteSpace=wrap;rounded=0;" vertex="1" parent="1">
          <mxGeometry x="460" y="30" width="90" height="20" as="geometry" />
        </mxCell>
        <mxCell id="iAt17fcDZL2dFfKAkzgQ-9" value="&lt;font style=&quot;font-size: 40px&quot;&gt;传输层&lt;/font&gt;" style="text;html=1;strokeColor=none;fillColor=none;align=center;verticalAlign=middle;whiteSpace=wrap;rounded=0;" vertex="1" parent="1">
          <mxGeometry x="583" y="30" width="135" height="20" as="geometry" />
        </mxCell>
        <mxCell id="iAt17fcDZL2dFfKAkzgQ-10" value="&lt;font style=&quot;font-size: 16px&quot;&gt;IP头会在&lt;br&gt;进入传输层时&lt;br&gt;被拆掉&lt;/font&gt;" style="ellipse;shape=cloud;whiteSpace=wrap;html=1;fillColor=#CD5E3C;" vertex="1" parent="1">
          <mxGeometry x="405" y="230" width="145" height="90" as="geometry" />
        </mxCell>
        <mxCell id="iAt17fcDZL2dFfKAkzgQ-11" value="" style="shape=flexArrow;endArrow=classic;html=1;strokeWidth=5;strokeColor=#CD5E3C;" edge="1" parent="1">
          <mxGeometry width="50" height="50" relative="1" as="geometry">
            <mxPoint x="400" y="206" as="sourcePoint" />
            <mxPoint x="440" y="236" as="targetPoint" />
          </mxGeometry>
        </mxCell>
        <mxCell id="iAt17fcDZL2dFfKAkzgQ-12" value="&lt;font style=&quot;font-size: 30px&quot;&gt;msg1&lt;/font&gt;" style="rounded=1;whiteSpace=wrap;html=1;fillColor=#FDD276;strokeColor=#FDD276;" vertex="1" parent="1">
          <mxGeometry x="870" y="130" width="80" height="42.88" as="geometry" />
        </mxCell>
      </root>
    </mxGraphModel>
  </diagram>
</mxfile>
